<mxfile host="app.diagrams.net" modified="2023-10-14T16:03:06.177Z" agent="Mozilla/5.0 (Windows NT 10.0; Win64; x64) AppleWebKit/537.36 (KHTML, like Gecko) Chrome/116.0.0.0 Safari/537.36 OPR/102.0.0.0" etag="YyPSE84lY6QcNRr8SEc9" version="21.6.1" type="device">
  <diagram name="Pagina-1" id="wN6YJSM4o66fR8LFv3Vh">
    <mxGraphModel dx="1945" dy="2311" grid="1" gridSize="10" guides="1" tooltips="1" connect="1" arrows="1" fold="1" page="1" pageScale="1" pageWidth="827" pageHeight="1169" math="0" shadow="0">
      <root>
        <mxCell id="0" />
        <mxCell id="1" parent="0" />
        <mxCell id="5UGKIeRZJDmRClwh3Alo-3" value="&lt;font style=&quot;font-size: 18px;&quot;&gt;Kawaii Comix&lt;/font&gt;" style="swimlane;whiteSpace=wrap;html=1;startSize=80;fillColor=#FF6F88;align=left;strokeColor=#CCFFFF;" vertex="1" parent="1">
          <mxGeometry x="-680" y="-840" width="1020" height="644" as="geometry" />
        </mxCell>
        <mxCell id="5UGKIeRZJDmRClwh3Alo-8" value="" style="whiteSpace=wrap;html=1;fillColor=#CCFFFF;align=left;" vertex="1" parent="5UGKIeRZJDmRClwh3Alo-3">
          <mxGeometry y="80" width="1020" height="520" as="geometry" />
        </mxCell>
        <mxCell id="5UGKIeRZJDmRClwh3Alo-9" value="Home" style="rounded=1;whiteSpace=wrap;html=1;fillColor=#FFCCCC;" vertex="1" parent="5UGKIeRZJDmRClwh3Alo-3">
          <mxGeometry x="560" y="20" width="80" height="40" as="geometry" />
        </mxCell>
        <mxCell id="5UGKIeRZJDmRClwh3Alo-10" value="Catalogo" style="rounded=1;whiteSpace=wrap;html=1;fillColor=#FFCCCC;" vertex="1" parent="5UGKIeRZJDmRClwh3Alo-3">
          <mxGeometry x="650" y="20" width="80" height="40" as="geometry" />
        </mxCell>
        <mxCell id="5UGKIeRZJDmRClwh3Alo-11" value="Ricerca" style="rounded=1;whiteSpace=wrap;html=1;fillColor=#FFCCCC;" vertex="1" parent="5UGKIeRZJDmRClwh3Alo-3">
          <mxGeometry x="740" y="20" width="80" height="40" as="geometry" />
        </mxCell>
        <mxCell id="5UGKIeRZJDmRClwh3Alo-12" value="Area Utente" style="rounded=1;whiteSpace=wrap;html=1;fillColor=#FFCCCC;" vertex="1" parent="5UGKIeRZJDmRClwh3Alo-3">
          <mxGeometry x="830" y="20" width="80" height="40" as="geometry" />
        </mxCell>
        <mxCell id="5UGKIeRZJDmRClwh3Alo-13" value="Carrello" style="rounded=1;whiteSpace=wrap;html=1;fillColor=#FFCCCC;" vertex="1" parent="5UGKIeRZJDmRClwh3Alo-3">
          <mxGeometry x="920" y="20" width="80" height="40" as="geometry" />
        </mxCell>
        <mxCell id="5UGKIeRZJDmRClwh3Alo-15" value="" style="rounded=0;whiteSpace=wrap;html=1;fillColor=#66B2FF;align=left;" vertex="1" parent="5UGKIeRZJDmRClwh3Alo-3">
          <mxGeometry x="207.5" y="120" width="605" height="360" as="geometry" />
        </mxCell>
        <mxCell id="5UGKIeRZJDmRClwh3Alo-35" value="Invia" style="rounded=1;whiteSpace=wrap;html=1;fillColor=#FFCCCC;" vertex="1" parent="5UGKIeRZJDmRClwh3Alo-3">
          <mxGeometry x="470" y="400" width="80" height="40" as="geometry" />
        </mxCell>
        <mxCell id="5UGKIeRZJDmRClwh3Alo-36" value="&lt;font size=&quot;3&quot;&gt;&lt;b&gt;Nome&lt;br&gt;&lt;br&gt;Cognome&lt;br&gt;&lt;br&gt;E-mail&lt;br&gt;&lt;br&gt;Password&lt;/b&gt;&lt;br&gt;&lt;/font&gt;" style="rounded=0;whiteSpace=wrap;html=1;fillColor=#66B2FF;strokeColor=#66B2FF;" vertex="1" parent="5UGKIeRZJDmRClwh3Alo-3">
          <mxGeometry x="267" y="170" width="120" height="260" as="geometry" />
        </mxCell>
        <mxCell id="5UGKIeRZJDmRClwh3Alo-37" value="" style="rounded=0;whiteSpace=wrap;html=1;" vertex="1" parent="5UGKIeRZJDmRClwh3Alo-3">
          <mxGeometry x="420" y="231" width="340" height="19" as="geometry" />
        </mxCell>
        <mxCell id="5UGKIeRZJDmRClwh3Alo-49" value="" style="rounded=0;whiteSpace=wrap;html=1;" vertex="1" parent="5UGKIeRZJDmRClwh3Alo-3">
          <mxGeometry x="420" y="270" width="340" height="20" as="geometry" />
        </mxCell>
        <mxCell id="5UGKIeRZJDmRClwh3Alo-50" value="" style="rounded=0;whiteSpace=wrap;html=1;" vertex="1" parent="5UGKIeRZJDmRClwh3Alo-3">
          <mxGeometry x="420" y="312" width="340" height="20" as="geometry" />
        </mxCell>
        <mxCell id="5UGKIeRZJDmRClwh3Alo-51" value="" style="rounded=0;whiteSpace=wrap;html=1;" vertex="1" parent="5UGKIeRZJDmRClwh3Alo-3">
          <mxGeometry x="420" y="350" width="340" height="20" as="geometry" />
        </mxCell>
        <mxCell id="5UGKIeRZJDmRClwh3Alo-52" value="&lt;h1&gt;ISCRIZIONE&lt;/h1&gt;" style="rounded=0;whiteSpace=wrap;html=1;fillColor=#66B2FF;strokeColor=#66B2FF;" vertex="1" parent="5UGKIeRZJDmRClwh3Alo-3">
          <mxGeometry x="410" y="150" width="200" height="60" as="geometry" />
        </mxCell>
        <mxCell id="5UGKIeRZJDmRClwh3Alo-4" value="" style="endArrow=none;html=1;rounded=0;" edge="1" parent="1">
          <mxGeometry width="50" height="50" relative="1" as="geometry">
            <mxPoint x="-680" y="-240" as="sourcePoint" />
            <mxPoint x="320" y="-240" as="targetPoint" />
          </mxGeometry>
        </mxCell>
        <mxCell id="5UGKIeRZJDmRClwh3Alo-5" value="&lt;font size=&quot;3&quot;&gt;Footer&lt;/font&gt;" style="whiteSpace=wrap;html=1;fillColor=#B3B3B3;" vertex="1" parent="1">
          <mxGeometry x="-680" y="-240" width="1020" height="60" as="geometry" />
        </mxCell>
      </root>
    </mxGraphModel>
  </diagram>
</mxfile>
